<svg xmlns="http://www.w3.org/2000/svg" viewBox="0 0 1152 456" width="1152" height="456" role="img" aria-labelledby="t d"><title id="t">E2 · 真实“主 DSH + 副本 DSH”回路中的记忆质量</title><desc id="d">每组 64 轮（2 次重复 × 32 轮），900 行无标签语料，主模型 deepseek-flash，副本判别 jev-1.13.0。</desc><style>
svg{--surface:#fcfcfb;--ink:#0b0b0b;--ink2:#52514e;--muted:#898781;--grid:#e1e0d9;--axis:#c3c2b7;--s1:#2a78d6;--s2:#eb6834;--s3:#1baf7a;--context:#b0aea6}
@media (prefers-color-scheme:dark){svg{--surface:#1a1a19;--ink:#ffffff;--ink2:#c3c2b7;--muted:#898781;--grid:#2c2c2a;--axis:#383835;--s1:#3987e5;--s2:#d95926;--s3:#199e70;--context:#5a5955}}
.bg{fill:var(--surface)}text{font-family:system-ui,-apple-system,"Segoe UI",sans-serif;fill:var(--ink2);font-size:12px}
.title{fill:var(--ink);font-size:15px;font-weight:600}.subtitle{fill:var(--ink2);font-size:12px}.panel{fill:var(--ink);font-size:13px;font-weight:600}
.value{fill:var(--ink);font-size:12px;font-variant-numeric:tabular-nums}.tick{fill:var(--muted);font-size:11px;font-variant-numeric:tabular-nums}
.grid{stroke:var(--grid);stroke-width:1}.axis{stroke:var(--axis);stroke-width:1}
.s1{fill:var(--s1)}.s2{fill:var(--s2)}.s3{fill:var(--s3)}.context{fill:var(--context)}
.l1{stroke:var(--s1)}.l2{stroke:var(--s2)}.l3{stroke:var(--s3)}.line{fill:none;stroke-width:2;stroke-linejoin:round;stroke-linecap:round}
.dot{stroke:var(--surface);stroke-width:2}
</style><rect class="bg" width="1152" height="456"/><text class="title" x="24" y="30">E2 · 真实“主 DSH + 副本 DSH”回路中的记忆质量</text><text class="subtitle" x="24" y="50">每组 64 轮（2 次重复 × 32 轮），900 行无标签语料，主模型 deepseek-flash，副本判别 jev-1.13.0。</text><text class="panel" x="24" y="88">当前 View 中包含的必要证据（召回）</text><line class="grid" x1="214" x2="214" y1="98" y2="228"/><text class="tick" x="214" y="242" text-anchor="middle">0%</text><line class="grid" x1="361" x2="361" y1="98" y2="228"/><text class="tick" x="361" y="242" text-anchor="middle">50%</text><line class="grid" x1="508" x2="508" y1="98" y2="228"/><text class="tick" x="508" y="242" text-anchor="middle">100%</text><line class="axis" x1="214" x2="214" y1="98" y2="228"/><text x="206" y="116" text-anchor="end">无副本记忆</text><path class="context" d=""><title>无副本记忆: 0%</title></path><text class="value" x="220" y="116">0%</text><text x="206" y="142" text-anchor="end">旧：维护式 OptMem</text><path class="context" d="M214,130h136.875a4,4 0 0 1 4,4v8a4,4 0 0 1 -4,4h-136.875z"><title>旧：维护式 OptMem: 48%</title></path><text class="value" x="360.875" y="142">48%</text><text x="206" y="168" text-anchor="end">自然策略 · 词法判别</text><path class="context" d="M214,156h167.5a4,4 0 0 1 4,4v8a4,4 0 0 1 -4,4h-167.5z"><title>自然策略 · 词法判别: 58%</title></path><text class="value" x="391.5" y="168">58%</text><text x="206" y="194" text-anchor="end">自然策略 · JEV · 快照累积</text><path class="context" d="M214,182h274.6875a4,4 0 0 1 4,4v8a4,4 0 0 1 -4,4h-274.6875z"><title>自然策略 · JEV · 快照累积: 95%</title></path><text class="value" x="498.6875" y="194">95%</text><text x="206" y="220" text-anchor="end" class="value">自然策略 · JEV（新）</text><path class="s1" d="M214,208h271.625a4,4 0 0 1 4,4v8a4,4 0 0 1 -4,4h-271.625z"><title>自然策略 · JEV（新）: 94%</title></path><text class="value" x="495.625" y="220">94%</text><text class="panel" x="588" y="88">投递条目中相关的比例（精度）</text><line class="grid" x1="778" x2="778" y1="98" y2="228"/><text class="tick" x="778" y="242" text-anchor="middle">0%</text><line class="grid" x1="925" x2="925" y1="98" y2="228"/><text class="tick" x="925" y="242" text-anchor="middle">50%</text><line class="grid" x1="1072" x2="1072" y1="98" y2="228"/><text class="tick" x="1072" y="242" text-anchor="middle">100%</text><line class="axis" x1="778" x2="778" y1="98" y2="228"/><text x="770" y="116" text-anchor="end">无副本记忆</text><path class="context" d=""><title>无副本记忆: n/a</title></path><text class="value" x="784" y="116">n/a</text><text x="770" y="142" text-anchor="end">旧：维护式 OptMem</text><path class="context" d="M778,130h212.3396226415094a4,4 0 0 1 4,4v8a4,4 0 0 1 -4,4h-212.3396226415094z"><title>旧：维护式 OptMem: 74%</title></path><text class="value" x="1000.3396226415094" y="142">74%</text><text x="770" y="168" text-anchor="end">自然策略 · 词法判别</text><path class="context" d="M778,156h84.92592592592592a4,4 0 0 1 4,4v8a4,4 0 0 1 -4,4h-84.92592592592592z"><title>自然策略 · 词法判别: 30%</title></path><text class="value" x="872.9259259259259" y="168">30%</text><text x="770" y="194" text-anchor="end">自然策略 · JEV · 快照累积</text><path class="context" d="M778,182h236.66976744186047a4,4 0 0 1 4,4v8a4,4 0 0 1 -4,4h-236.66976744186047z"><title>自然策略 · JEV · 快照累积: 82%</title></path><text class="value" x="1024.6697674418606" y="194">82%</text><text x="770" y="220" text-anchor="end" class="value">自然策略 · JEV（新）</text><path class="s1" d="M778,208h238.68867924528303a4,4 0 0 1 4,4v8a4,4 0 0 1 -4,4h-238.68867924528303z"><title>自然策略 · JEV（新）: 83%</title></path><text class="value" x="1026.688679245283" y="220">83%</text><text class="panel" x="24" y="280">回答用到了必要事实（盲评）</text><line class="grid" x1="214" x2="214" y1="290" y2="420"/><text class="tick" x="214" y="434" text-anchor="middle">0%</text><line class="grid" x1="361" x2="361" y1="290" y2="420"/><text class="tick" x="361" y="434" text-anchor="middle">50%</text><line class="grid" x1="508" x2="508" y1="290" y2="420"/><text class="tick" x="508" y="434" text-anchor="middle">100%</text><line class="axis" x1="214" x2="214" y1="290" y2="420"/><text x="206" y="308" text-anchor="end">无副本记忆</text><path class="context" d="M214,296h5.1875a4,4 0 0 1 4,4v8a4,4 0 0 1 -4,4h-5.1875z"><title>无副本记忆: 3%</title></path><text class="value" x="229.1875" y="308">3%</text><text x="206" y="334" text-anchor="end">旧：维护式 OptMem</text><path class="context" d="M214,322h185.875a4,4 0 0 1 4,4v8a4,4 0 0 1 -4,4h-185.875z"><title>旧：维护式 OptMem: 65%</title></path><text class="value" x="409.875" y="334">65%</text><text x="206" y="360" text-anchor="end">自然策略 · 词法判别</text><path class="context" d="M214,348h179.75a4,4 0 0 1 4,4v8a4,4 0 0 1 -4,4h-179.75z"><title>自然策略 · 词法判别: 63%</title></path><text class="value" x="403.75" y="360">63%</text><text x="206" y="386" text-anchor="end">自然策略 · JEV · 快照累积</text><path class="context" d="M214,374h274.6875a4,4 0 0 1 4,4v8a4,4 0 0 1 -4,4h-274.6875z"><title>自然策略 · JEV · 快照累积: 95%</title></path><text class="value" x="498.6875" y="386">95%</text><text x="206" y="412" text-anchor="end" class="value">自然策略 · JEV（新）</text><path class="s1" d="M214,400h274.6875a4,4 0 0 1 4,4v8a4,4 0 0 1 -4,4h-274.6875z"><title>自然策略 · JEV（新）: 95%</title></path><text class="value" x="498.6875" y="412">95%</text><text class="panel" x="588" y="280">回答含无依据的具体信息（越低越好）</text><line class="grid" x1="778" x2="778" y1="290" y2="420"/><text class="tick" x="778" y="434" text-anchor="middle">0%</text><line class="grid" x1="925" x2="925" y1="290" y2="420"/><text class="tick" x="925" y="434" text-anchor="middle">25%</text><line class="grid" x1="1072" x2="1072" y1="290" y2="420"/><text class="tick" x="1072" y="434" text-anchor="middle">50%</text><line class="axis" x1="778" x2="778" y1="290" y2="420"/><text x="770" y="308" text-anchor="end">无副本记忆</text><path class="context" d="M778,296h5.1875a4,4 0 0 1 4,4v8a4,4 0 0 1 -4,4h-5.1875z"><title>无副本记忆: 2%</title></path><text class="value" x="793.1875" y="308">2%</text><text x="770" y="334" text-anchor="end">旧：维护式 OptMem</text><path class="context" d="M778,322h87.875a4,4 0 0 1 4,4v8a4,4 0 0 1 -4,4h-87.875z"><title>旧：维护式 OptMem: 16%</title></path><text class="value" x="875.875" y="334">16%</text><text x="770" y="360" text-anchor="end">自然策略 · 词法判别</text><path class="context" d="M778,348h78.6875a4,4 0 0 1 4,4v8a4,4 0 0 1 -4,4h-78.6875z"><title>自然策略 · 词法判别: 14%</title></path><text class="value" x="866.6875" y="360">14%</text><text x="770" y="386" text-anchor="end">自然策略 · JEV · 快照累积</text><path class="context" d="M778,374h69.5a4,4 0 0 1 4,4v8a4,4 0 0 1 -4,4h-69.5z"><title>自然策略 · JEV · 快照累积: 13%</title></path><text class="value" x="857.5" y="386">13%</text><text x="770" y="412" text-anchor="end" class="value">自然策略 · JEV（新）</text><path class="s1" d="M778,400h69.5a4,4 0 0 1 4,4v8a4,4 0 0 1 -4,4h-69.5z"><title>自然策略 · JEV（新）: 13%</title></path><text class="value" x="857.5" y="412">13%</text></svg>
